<?xml version="1.0" encoding="UTF-8"?>
<!DOCTYPE svg PUBLIC "-//W3C//DTD SVG 1.1//EN" "http://www.w3.org/Graphics/SVG/1.1/DTD/svg11.dtd">
<svg xmlns="http://www.w3.org/2000/svg" version="1.1" width="512px" height="512px" style="shape-rendering:geometricPrecision; text-rendering:geometricPrecision; image-rendering:optimizeQuality; fill-rule:evenodd; clip-rule:evenodd" xmlns:xlink="http://www.w3.org/1999/xlink">
<g><path style="opacity:0.998" fill="#56b6ea" d="M 257.5,-0.5 C 268.5,-0.5 279.5,-0.5 290.5,-0.5C 328.687,4.75936 360.02,22.2594 384.5,52C 436.711,49.0159 475.544,70.1826 501,115.5C 505.634,125.571 509.134,135.905 511.5,146.5C 511.5,159.833 511.5,173.167 511.5,186.5C 509.839,194.815 507.173,202.815 503.5,210.5C 504.141,207.779 504.641,205.112 505,202.5C 473.708,226.426 438.875,233.592 400.5,224C 391.45,220.974 382.783,217.14 374.5,212.5C 330.786,233.698 287.12,233.698 243.5,212.5C 216.753,228.95 188.419,232.45 158.5,223C 151.474,220.405 144.974,216.905 139,212.5C 116.564,230.852 92.397,233.352 66.5,220C 46.1408,206.787 36.1408,187.953 36.5,163.5C 40.1402,161.338 44.1402,159.838 48.5,159C 54.793,157.977 61.1263,157.311 67.5,157C 80.5015,123.83 104.502,103.996 139.5,97.5C 155.313,51.5201 186.313,20.6868 232.5,5C 240.877,2.72213 249.21,0.888795 257.5,-0.5 Z"/></g>
<g><path style="opacity:0.999" fill="#4891d3" d="M 36.5,163.5 C 36.1408,187.953 46.1408,206.787 66.5,220C 92.397,233.352 116.564,230.852 139,212.5C 144.974,216.905 151.474,220.405 158.5,223C 188.419,232.45 216.753,228.95 243.5,212.5C 287.12,233.698 330.786,233.698 374.5,212.5C 382.783,217.14 391.45,220.974 400.5,224C 438.875,233.592 473.708,226.426 505,202.5C 504.641,205.112 504.141,207.779 503.5,210.5C 499.211,222.416 492.878,233.083 484.5,242.5C 480.43,245.06 476.764,248.227 473.5,252C 473.728,252.399 474.062,252.565 474.5,252.5C 439.101,282.064 399.435,289.231 355.5,274C 349.941,271.637 344.441,269.137 339,266.5C 295.129,286.802 251.463,286.469 208,265.5C 180.104,283.089 150.604,286.256 119.5,275C 114.008,272.421 108.675,269.588 103.5,266.5C 84.3983,282.034 63.0649,285.867 39.5,278C 15.4331,267.118 2.09973,248.618 -0.5,222.5C -0.5,220.5 -0.5,218.5 -0.5,216.5C 0.964601,199.402 7.9646,184.902 20.5,173C 25.3934,169.055 30.7267,165.888 36.5,163.5 Z"/></g>
<g><path style="opacity:0.039" fill="#54b3e9" d="M 484.5,242.5 C 481.5,246.167 478.167,249.5 474.5,252.5C 474.062,252.565 473.728,252.399 473.5,252C 476.764,248.227 480.43,245.06 484.5,242.5 Z"/></g>
<g><path style="opacity:0.987" fill="#56b6ea" d="M 485.5,363.5 C 469.812,373.306 456.312,370.973 445,356.5C 440.988,348.712 440.488,340.712 443.5,332.5C 446.136,326.565 449.302,320.898 453,315.5C 454.938,312.61 457.105,309.944 459.5,307.5C 467.996,319.515 475.496,332.181 482,345.5C 484.818,351.413 485.984,357.413 485.5,363.5 Z"/></g>
<g><path style="opacity:0.988" fill="#56b6ea" d="M 151.5,372.5 C 147.229,374.297 142.896,376.13 138.5,378C 125.063,379.533 115.23,374.366 109,362.5C 106.965,356.43 106.132,350.43 106.5,344.5C 111.392,335.723 116.559,327.057 122,318.5C 122.837,316.993 124.004,316.493 125.5,317C 133.885,329.597 141.385,342.764 148,356.5C 150.118,361.638 151.285,366.971 151.5,372.5 Z"/></g>
<g><path style="opacity:0.987" fill="#56b6ea" d="M 300.5,373.5 C 299.883,373.389 299.383,373.056 299,372.5C 283.9,382.214 270.9,379.881 260,365.5C 255.988,357.712 255.488,349.712 258.5,341.5C 262.578,332.339 267.912,324.005 274.5,316.5C 286.572,332.58 295.572,350.247 301.5,369.5C 301.212,370.861 300.879,372.194 300.5,373.5 Z"/></g>
<g><path style="opacity:0.982" fill="#4891d3" d="M 443.5,332.5 C 440.488,340.712 440.988,348.712 445,356.5C 456.312,370.973 469.812,373.306 485.5,363.5C 484.052,379.281 475.385,387.614 459.5,388.5C 437.661,385.513 429.161,373.179 434,351.5C 436.143,344.548 439.309,338.214 443.5,332.5 Z"/></g>
<g><path style="opacity:0.982" fill="#4891d3" d="M 106.5,344.5 C 106.132,350.43 106.965,356.43 109,362.5C 115.23,374.366 125.063,379.533 138.5,378C 142.896,376.13 147.229,374.297 151.5,372.5C 149.062,387.89 140.062,396.224 124.5,397.5C 107.814,396.148 98.8144,387.148 97.5,370.5C 98.5308,361.071 101.531,352.405 106.5,344.5 Z"/></g>
<g><path style="opacity:0.976" fill="#4891d3" d="M 258.5,341.5 C 255.488,349.712 255.988,357.712 260,365.5C 270.9,379.881 283.9,382.214 299,372.5C 299.383,373.056 299.883,373.389 300.5,373.5C 297.268,390.553 286.935,398.386 269.5,397C 255.42,393.754 248.086,384.921 247.5,370.5C 248.62,359.797 252.287,350.13 258.5,341.5 Z"/></g>
<g><path style="opacity:0.988" fill="#56b6ea" d="M 397.5,433.5 C 377.633,445.155 363.133,440.488 354,419.5C 353.436,413.743 353.936,408.076 355.5,402.5C 360.046,393.786 365.212,385.453 371,377.5C 381.749,392.328 390.415,408.328 397,425.5C 397.497,428.146 397.664,430.813 397.5,433.5 Z"/></g>
<g><path style="opacity:0.988" fill="#56b6ea" d="M 71.5,442.5 C 53.4326,453.588 39.2659,449.921 29,431.5C 27.6036,425.384 27.1036,419.384 27.5,413.5C 32.8246,404.188 38.658,395.188 45,386.5C 56.1892,401.051 64.8558,417.051 71,434.5C 71.4974,437.146 71.6641,439.813 71.5,442.5 Z"/></g>
<g><path style="opacity:0.983" fill="#4892d3" d="M 355.5,402.5 C 353.936,408.076 353.436,413.743 354,419.5C 363.133,440.488 377.633,445.155 397.5,433.5C 395.847,449.319 387.014,457.985 371,459.5C 349.46,455.613 341.127,442.946 346,421.5C 348.143,414.548 351.309,408.214 355.5,402.5 Z"/></g>
<g><path style="opacity:0.984" fill="#4891d3" d="M 27.5,413.5 C 27.1036,419.384 27.6036,425.384 29,431.5C 39.2659,449.921 53.4326,453.588 71.5,442.5C 69.9613,458.538 61.128,466.871 45,467.5C 28.1667,466.667 19.3333,457.833 18.5,441C 19.3457,431.139 22.3457,421.972 27.5,413.5 Z"/></g>
<g><path style="opacity:0.987" fill="#56b6ea" d="M 230.5,486.5 C 219.005,494.317 207.338,494.484 195.5,487C 186.43,477.679 184.097,466.846 188.5,454.5C 192.988,446.192 197.988,438.192 203.5,430.5C 214.924,445.343 223.758,461.676 230,479.5C 230.497,481.81 230.663,484.143 230.5,486.5 Z"/></g>
<g><path style="opacity:0.983" fill="#4891d3" d="M 188.5,454.5 C 184.097,466.846 186.43,477.679 195.5,487C 207.338,494.484 219.005,494.317 230.5,486.5C 229.047,498.611 222.714,506.944 211.5,511.5C 206.5,511.5 201.5,511.5 196.5,511.5C 180.361,505.226 174.194,493.56 178,476.5C 180.468,468.556 183.968,461.223 188.5,454.5 Z"/></g>
</svg>
